<svg width="100.000000" height="20.000000" viewBox="0 0 100 20" fill="none" xmlns="http://www.w3.org/2000/svg" xmlns:xlink="http://www.w3.org/1999/xlink">
	<desc>
			Created with Pixso.
	</desc>
	<defs>
		<clipPath id="clip1_105">
			<rect id="logo" rx="-0.046041" width="99.907921" height="19.907919" transform="translate(0.046041 0.046041)" fill="white" fill-opacity="0"/>
		</clipPath>
	</defs>
	<g clip-path="url(#clip1_105)">
		<path id="Path 10" d="M23.14 12.46C23.14 11.65 23.33 10.99 23.72 10.47C24.09 9.95 24.58 9.57 25.19 9.32C25.8 9.08 26.45 8.95 27.15 8.95C27.47 8.95 27.86 8.96 28.33 8.97C28.45 8.98 28.57 8.99 28.68 8.99L28.68 8.58C28.68 8.12 28.56 7.77 28.34 7.55C28.11 7.32 27.76 7.21 27.3 7.21C26.85 7.21 26.36 7.28 25.84 7.42C25.33 7.56 24.8 7.71 24.28 7.88C24.06 7.63 23.88 7.31 23.76 6.92C23.64 6.53 23.56 6.14 23.52 5.77C23.97 5.58 24.47 5.42 25.01 5.29C25.56 5.15 26.1 5.05 26.64 4.98C27.18 4.9 27.67 4.87 28.12 4.87C28.72 4.87 29.3 4.98 29.85 5.2C30.39 5.42 30.83 5.78 31.18 6.29C31.53 6.8 31.7 7.47 31.7 8.32L31.7 12.46C31.7 12.77 31.74 13.04 31.83 13.26C31.92 13.49 32.07 13.68 32.27 13.84C32.21 14.11 32.09 14.4 31.9 14.71C31.71 15.02 31.52 15.25 31.32 15.4C30.74 15.38 30.27 15.24 29.9 14.99C29.62 14.78 29.39 14.55 29.2 14.29C29.14 14.35 29.08 14.41 29.01 14.47C28.67 14.77 28.27 15.02 27.81 15.23C27.36 15.43 26.83 15.53 26.23 15.53C25.53 15.53 24.95 15.38 24.5 15.07C24.04 14.76 23.7 14.37 23.48 13.9C23.25 13.43 23.14 12.95 23.14 12.46ZM28.51 10.93C28.1 10.91 27.75 10.91 27.45 10.91C26.98 10.91 26.64 11.03 26.42 11.28C26.2 11.53 26.09 11.86 26.09 12.26C26.09 12.55 26.18 12.79 26.36 12.99C26.54 13.18 26.78 13.28 27.09 13.28C27.51 13.28 27.94 13.14 28.38 12.84C28.48 12.77 28.58 12.69 28.68 12.61L28.68 10.93C28.62 10.93 28.57 10.93 28.51 10.93ZM40.88 5.12C40.88 5.49 40.82 5.94 40.69 6.5C40.57 7.05 40.38 7.53 40.12 7.95C39.96 7.89 39.79 7.85 39.63 7.82C39.46 7.8 39.29 7.78 39.11 7.76C38.83 7.76 38.57 7.81 38.35 7.92C38.12 8.03 37.92 8.19 37.74 8.38C37.61 8.52 37.49 8.67 37.38 8.84L37.38 15.23C36.93 15.31 36.43 15.34 35.87 15.34C35.32 15.34 34.81 15.31 34.35 15.23L34.35 8.61C34.35 8.02 34.26 7.55 34.09 7.2C33.92 6.86 33.75 6.62 33.58 6.5C33.64 6.23 33.76 5.93 33.95 5.62C34.14 5.31 34.34 5.08 34.53 4.93C35.43 5.02 36.11 5.37 36.57 5.98C36.75 6.22 36.9 6.49 37.02 6.78C37.07 6.66 37.12 6.55 37.18 6.44C37.4 5.99 37.71 5.63 38.1 5.36C38.49 5.09 38.99 4.96 39.58 4.96C39.87 4.95 40.11 4.96 40.3 5C40.49 5.03 40.68 5.07 40.88 5.12ZM44.55 9.22C44.79 8.9 45.07 8.56 45.37 8.21C45.69 7.86 45.96 7.55 46.19 7.3L46.13 7.2C45.88 7.23 45.61 7.25 45.31 7.28C45.01 7.3 44.71 7.32 44.41 7.33C44.1 7.35 43.83 7.35 43.58 7.35L41.93 7.35C41.9 7.2 41.87 7.05 41.86 6.88C41.84 6.72 41.83 6.57 41.83 6.42C41.83 6.2 41.84 5.97 41.87 5.75C41.9 5.52 41.94 5.31 41.99 5.1L49.05 5.1C49.18 5.47 49.27 5.79 49.34 6.04C49.41 6.31 49.44 6.55 49.44 6.76C49.44 6.9 49.42 7.06 49.37 7.22C49.33 7.39 49.25 7.54 49.15 7.68L46.54 11.13C46.31 11.43 46.07 11.74 45.8 12.08C45.52 12.41 45.26 12.71 45 12.98L45.06 13.07C45.36 13.03 45.65 13.01 45.93 12.99C46.2 12.97 46.46 12.96 46.71 12.96L47.45 12.96C47.79 12.96 48.12 12.94 48.47 12.89C48.8 12.84 49.11 12.76 49.39 12.63C49.6 13.11 49.7 13.52 49.7 13.88C49.7 14.29 49.58 14.61 49.34 14.87C49.1 15.11 48.67 15.23 48.05 15.23L41.93 15.23C41.8 14.87 41.71 14.57 41.66 14.34C41.61 14.11 41.59 13.91 41.58 13.74C41.59 13.57 41.62 13.39 41.68 13.21C41.74 13.02 41.86 12.82 42.02 12.61L44.55 9.22ZM59.95 10.17C59.95 11.24 59.77 12.18 59.42 12.99C59.07 13.79 58.55 14.41 57.86 14.86C57.17 15.31 56.31 15.53 55.29 15.53C54.28 15.53 53.42 15.31 52.73 14.86C52.04 14.41 51.52 13.78 51.17 12.98C50.82 12.17 50.65 11.24 50.64 10.17C50.64 9.08 50.82 8.14 51.17 7.33C51.52 6.53 52.05 5.91 52.74 5.46C53.43 5.02 54.28 4.8 55.29 4.8C56.31 4.8 57.17 5.03 57.87 5.47C58.56 5.92 59.07 6.54 59.42 7.34C59.77 8.15 59.95 9.09 59.95 10.17ZM53.75 10.17C53.75 10.74 53.79 11.26 53.87 11.73C53.95 12.19 54.09 12.56 54.31 12.84C54.53 13.12 54.86 13.26 55.3 13.26C55.74 13.26 56.07 13.12 56.28 12.84C56.51 12.56 56.65 12.19 56.73 11.73C56.8 11.26 56.84 10.74 56.84 10.17C56.84 9.6 56.8 9.08 56.73 8.6C56.65 8.14 56.51 7.76 56.28 7.48C56.07 7.2 55.74 7.07 55.3 7.07C54.86 7.07 54.53 7.2 54.31 7.48C54.09 7.76 53.95 8.14 53.87 8.6C53.79 9.08 53.75 9.6 53.75 10.17ZM63.15 4.96C63.74 4.96 64.17 5.16 64.46 5.56C64.6 5.73 64.7 5.94 64.77 6.18C65.08 5.93 65.4 5.69 65.74 5.47C66.31 5.1 66.96 4.91 67.67 4.91C68.3 4.91 68.83 5.07 69.25 5.37C69.67 5.68 69.98 6.1 70.19 6.64C70.4 7.18 70.5 7.79 70.5 8.49L70.5 12.74C70.5 13.13 70.54 13.5 70.62 13.84C70.69 14.19 70.82 14.49 70.99 14.75C70.77 14.93 70.5 15.08 70.17 15.21C69.84 15.33 69.48 15.39 69.1 15.39C68.49 15.38 68.07 15.22 67.83 14.9C67.59 14.58 67.47 14.12 67.47 13.51L67.47 9.07C67.47 8.57 67.41 8.21 67.28 7.98C67.15 7.75 66.91 7.64 66.55 7.64C66.32 7.64 66.07 7.7 65.78 7.81C65.48 7.93 65.19 8.12 64.91 8.38C64.91 8.38 64.9 8.39 64.9 8.39L64.9 15.23C64.45 15.31 63.95 15.34 63.38 15.34C62.84 15.34 62.33 15.31 61.86 15.23L61.86 5.11L62 4.96L63.15 4.96ZM73.39 3.86C73.39 3.19 73.52 2.71 73.77 2.44C74.02 2.17 74.45 2.03 75.04 2.03L76.22 2.03L76.36 2.17L76.36 5.11L78.79 5.08C78.87 5.43 78.92 5.79 78.92 6.15C78.92 6.53 78.87 6.9 78.79 7.24L76.36 7.2L76.36 12.07C76.36 12.37 76.43 12.6 76.57 12.77C76.7 12.93 76.93 13.02 77.25 13.02L78.43 13.02C78.58 13.48 78.66 13.96 78.66 14.46C78.66 14.57 78.66 14.69 78.65 14.81C78.64 14.93 78.63 15.04 78.6 15.14C78.23 15.19 77.81 15.23 77.33 15.27C76.86 15.31 76.41 15.34 76.01 15.34C75.12 15.34 74.47 15.11 74.04 14.66C73.61 14.22 73.39 13.54 73.39 12.61L73.39 7.21L71.82 7.24C71.73 6.9 71.69 6.53 71.69 6.15C71.69 5.79 71.73 5.43 71.82 5.08L73.39 5.11L73.39 3.86ZM89.07 10.17C89.07 11.24 88.89 12.18 88.54 12.99C88.18 13.79 87.66 14.41 86.97 14.86C86.28 15.3 85.42 15.52 84.41 15.53C83.39 15.53 82.54 15.31 81.85 14.86C81.16 14.41 80.64 13.78 80.29 12.98C79.94 12.17 79.76 11.24 79.76 10.17C79.76 9.08 79.94 8.14 80.29 7.33C80.65 6.53 81.17 5.91 81.86 5.46C82.55 5.02 83.4 4.79 84.41 4.79C85.43 4.79 86.29 5.02 86.98 5.46C87.68 5.91 88.2 6.54 88.55 7.34C88.89 8.15 89.07 9.09 89.07 10.17ZM82.88 10.17C82.88 10.73 82.91 11.25 82.99 11.72C83.06 12.19 83.21 12.56 83.43 12.84C83.65 13.12 83.98 13.25 84.42 13.25C84.86 13.25 85.19 13.12 85.41 12.84C85.62 12.56 85.77 12.19 85.84 11.72C85.92 11.25 85.95 10.73 85.95 10.17C85.95 9.6 85.92 9.08 85.84 8.6C85.77 8.13 85.62 7.76 85.41 7.48C85.19 7.2 84.86 7.07 84.42 7.07C83.98 7.07 83.65 7.2 83.43 7.48C83.21 7.76 83.06 8.13 82.99 8.6C82.91 9.08 82.88 9.6 82.88 10.17ZM91.94 4.96C92.56 4.96 93.05 5.19 93.42 5.64C93.49 5.74 93.56 5.84 93.62 5.95C93.88 5.69 94.18 5.47 94.51 5.27C95.06 4.95 95.66 4.79 96.32 4.79C97.14 4.79 97.82 5.02 98.36 5.46C98.9 5.91 99.3 6.53 99.56 7.32C99.83 8.1 99.96 9.01 99.96 10.04C99.96 11.21 99.77 12.19 99.41 13C99.04 13.79 98.54 14.4 97.92 14.81C97.31 15.22 96.64 15.42 95.91 15.43C95.21 15.42 94.58 15.27 94.04 14.99C94.01 14.97 93.99 14.96 93.96 14.95L93.96 17.79C93.96 18.46 93.84 18.94 93.59 19.21C93.33 19.49 92.91 19.63 92.31 19.63L91.12 19.63L90.98 19.48L90.98 5.1L91.12 4.96L91.94 4.96ZM94.24 12.8C94.65 13.04 95.03 13.15 95.39 13.15C95.72 13.15 96 13.03 96.21 12.78C96.43 12.52 96.59 12.17 96.7 11.7C96.8 11.23 96.86 10.67 96.86 10.02C96.86 9.37 96.8 8.83 96.68 8.43C96.56 8.02 96.41 7.72 96.22 7.53C96.02 7.33 95.8 7.23 95.56 7.23C95.32 7.23 95.06 7.3 94.76 7.44C94.49 7.56 94.22 7.78 93.96 8.1L93.96 12.64C94.06 12.69 94.15 12.75 94.24 12.8ZM19.26 2.02L19.26 17.23C19.26 18.34 18.36 19.23 17.25 19.23C16.21 19.23 15.35 18.43 15.26 17.42C15.26 17.42 15.25 17.42 15.25 17.42C13.67 18.56 11.74 19.23 9.65 19.23C4.36 19.23 0.03 14.91 0.03 9.63C0.03 4.34 4.36 0.01 9.65 0.01C10.75 0.01 11.64 0.92 11.64 2.02C11.64 3.12 10.75 4.02 9.65 4.02C6.56 4.02 4.04 6.54 4.04 9.63C4.04 12.71 6.56 15.23 9.65 15.23C12.73 15.23 15.25 12.71 15.25 9.63C15.25 9.55 15.25 9.48 15.24 9.41C13.67 10.56 11.74 11.23 9.65 11.23C8.54 11.23 7.65 10.33 7.65 9.22C7.65 8.13 8.53 7.23 9.63 7.22C9.64 7.22 9.65 7.22 9.66 7.22C12.67 7.21 15.14 4.81 15.26 1.84C15.35 0.82 16.21 0.01 17.25 0.01C18.36 0.01 19.26 0.92 19.26 2.02Z" fill="#CAEB1E" fill-opacity="1.000000" fill-rule="evenodd"/>
	</g>
</svg>
